<?xml version="1.0" standalone="no"?>
<svg viewBox="0 0 200 200" xmlns="http://www.w3.org/2000/svg">
  <path fill="#F2F4F8" d="M32.1,-55.6C41.1,-50.3,47.8,-40.9,58.6,-30.9C69.5,-20.9,84.5,-10.5,88.2,2.2C92,14.8,84.4,29.6,71.8,36.4C59.1,43.3,41.5,42.3,28.7,42.5C15.9,42.7,7.9,44.3,-0.8,45.6C-9.5,46.9,-18.9,48,-29.4,46.4C-39.8,44.8,-51.2,40.5,-56.2,32.3C-61.3,24.1,-59.8,12.1,-61.3,-0.8C-62.8,-13.7,-67.1,-27.5,-60.9,-33.7C-54.8,-40,-38.3,-38.8,-26.4,-42.5C-14.5,-46.2,-7.2,-54.8,2.1,-58.5C11.5,-62.2,23,-60.9,32.1,-55.6Z" transform="translate(100 100)" />
</svg>
